<mxfile host="drawio-plugin" modified="2022-11-16T19:14:22.575Z" agent="5.0 (Windows NT 6.2; Win64; x64) AppleWebKit/537.36 (KHTML, like Gecko) Chrome/98.0.4758.102 Safari/537.36" etag="3sWLw_Vh_S_QuRIzk6F7" version="15.5.4" type="embed" pages="3"><diagram id="4gqkbXoZPNrtpV4TiSYC" name="Manager"><mxGraphModel dx="692" dy="861" grid="1" gridSize="10" guides="1" tooltips="1" connect="1" arrows="1" fold="1" page="1" pageScale="1" pageWidth="1169" pageHeight="827" math="0" shadow="0"><root><mxCell id="97BSthSGMk0bG24kFqdg-0"/><mxCell id="97BSthSGMk0bG24kFqdg-1" parent="97BSthSGMk0bG24kFqdg-0"/><mxCell id="97BSthSGMk0bG24kFqdg-2" value="«sealed interface»&lt;br&gt;&lt;b&gt;Configurable&lt;/b&gt;" style="html=1;fillColor=#60a917;fontColor=#ffffff;strokeColor=#2D7600;" parent="97BSthSGMk0bG24kFqdg-1" vertex="1"><mxGeometry x="300" y="280" width="120" height="40" as="geometry"/></mxCell><mxCell id="ojPJYZOT4_6PB99yHjlc-0" value="«sealed»&lt;br&gt;&lt;b&gt;ListHolder&lt;/b&gt;" style="html=1;fillColor=#6a00ff;fontColor=#ffffff;strokeColor=#3700CC;" parent="97BSthSGMk0bG24kFqdg-1" vertex="1"><mxGeometry x="320" y="400" width="80" height="40" as="geometry"/></mxCell><mxCell id="N0jveRPINmAG9H1u4sjZ-0" value="" style="endArrow=block;endFill=0;endSize=12;html=1;rounded=0;fontSize=12;strokeWidth=2;" parent="97BSthSGMk0bG24kFqdg-1" source="ojPJYZOT4_6PB99yHjlc-0" target="97BSthSGMk0bG24kFqdg-2" edge="1"><mxGeometry width="160" relative="1" as="geometry"><mxPoint x="380" y="480" as="sourcePoint"/><mxPoint x="380" y="400" as="targetPoint"/></mxGeometry></mxCell><mxCell id="Uh7QoEqF8FHnvb4glm_y-0" value="&lt;b&gt;RecordsHolder&lt;/b&gt;" style="html=1;fillColor=#1ba1e2;fontColor=#ffffff;strokeColor=#006EAF;" parent="97BSthSGMk0bG24kFqdg-1" vertex="1"><mxGeometry x="60" y="400" width="120" height="40" as="geometry"/></mxCell><mxCell id="FHa6XKOMPqe2WC_pueKy-0" value="" style="endArrow=block;endSize=16;endFill=0;html=1;rounded=0;fontSize=12;strokeWidth=2;" parent="97BSthSGMk0bG24kFqdg-1" source="Uh7QoEqF8FHnvb4glm_y-0" target="ojPJYZOT4_6PB99yHjlc-0" edge="1"><mxGeometry width="160" relative="1" as="geometry"><mxPoint x="210" y="480" as="sourcePoint"/><mxPoint x="170" y="400" as="targetPoint"/></mxGeometry></mxCell><mxCell id="FHa6XKOMPqe2WC_pueKy-7" value="&lt;b&gt;WriterImplementation&lt;/b&gt;" style="html=1;fillColor=#1ba1e2;fontColor=#ffffff;strokeColor=#006EAF;" parent="97BSthSGMk0bG24kFqdg-1" vertex="1"><mxGeometry x="40" y="160" width="160" height="40" as="geometry"/></mxCell><mxCell id="FHa6XKOMPqe2WC_pueKy-9" value="" style="endArrow=none;startArrow=circlePlus;endFill=0;startFill=0;endSize=8;html=1;rounded=0;strokeWidth=2;" parent="97BSthSGMk0bG24kFqdg-1" source="FHa6XKOMPqe2WC_pueKy-7" target="Uh7QoEqF8FHnvb4glm_y-0" edge="1"><mxGeometry width="160" relative="1" as="geometry"><mxPoint x="470" y="410" as="sourcePoint"/><mxPoint x="470" y="490" as="targetPoint"/></mxGeometry></mxCell><mxCell id="FHa6XKOMPqe2WC_pueKy-25" value="«sealed interface»&lt;br&gt;&lt;b&gt;Manager&lt;/b&gt;" style="html=1;fillColor=#60a917;fontColor=#ffffff;strokeColor=#2D7600;" parent="97BSthSGMk0bG24kFqdg-1" vertex="1"><mxGeometry x="300" y="40" width="120" height="40" as="geometry"/></mxCell><mxCell id="ATWzokNBbirf8xxilFgU-0" value="«sealed»&lt;br&gt;&lt;b&gt;ManagerImplementation&lt;br&gt;&lt;/b&gt;" style="html=1;fillColor=#6a00ff;fontColor=#ffffff;strokeColor=#3700CC;" parent="97BSthSGMk0bG24kFqdg-1" vertex="1"><mxGeometry x="280" y="160" width="160" height="40" as="geometry"/></mxCell><mxCell id="ATWzokNBbirf8xxilFgU-1" value="" style="endArrow=block;endFill=0;endSize=12;html=1;rounded=0;fontSize=12;strokeWidth=2;" parent="97BSthSGMk0bG24kFqdg-1" source="ATWzokNBbirf8xxilFgU-0" target="FHa6XKOMPqe2WC_pueKy-25" edge="1"><mxGeometry width="160" relative="1" as="geometry"><mxPoint x="470" y="370" as="sourcePoint"/><mxPoint x="310" y="290" as="targetPoint"/></mxGeometry></mxCell><mxCell id="ATWzokNBbirf8xxilFgU-2" value="&lt;b&gt;ReaderImplementation&lt;/b&gt;" style="html=1;fillColor=#1ba1e2;fontColor=#ffffff;strokeColor=#006EAF;" parent="97BSthSGMk0bG24kFqdg-1" vertex="1"><mxGeometry x="520" y="160" width="160" height="40" as="geometry"/></mxCell><mxCell id="ATWzokNBbirf8xxilFgU-3" value="" style="endArrow=block;endSize=16;endFill=0;html=1;rounded=0;fontSize=12;strokeWidth=2;" parent="97BSthSGMk0bG24kFqdg-1" source="ATWzokNBbirf8xxilFgU-2" target="ATWzokNBbirf8xxilFgU-0" edge="1"><mxGeometry width="160" relative="1" as="geometry"><mxPoint x="410" y="510" as="sourcePoint"/><mxPoint x="310" y="410" as="targetPoint"/></mxGeometry></mxCell><mxCell id="ATWzokNBbirf8xxilFgU-5" value="" style="endArrow=block;endSize=16;endFill=0;html=1;rounded=0;fontSize=12;strokeWidth=2;" parent="97BSthSGMk0bG24kFqdg-1" source="FHa6XKOMPqe2WC_pueKy-7" target="ATWzokNBbirf8xxilFgU-0" edge="1"><mxGeometry width="160" relative="1" as="geometry"><mxPoint x="510" y="510" as="sourcePoint"/><mxPoint x="610" y="390" as="targetPoint"/></mxGeometry></mxCell><mxCell id="ATWzokNBbirf8xxilFgU-6" value="«sealed interface»&lt;br&gt;&lt;b&gt;Reader&lt;/b&gt;" style="html=1;fillColor=#60a917;fontColor=#ffffff;strokeColor=#2D7600;" parent="97BSthSGMk0bG24kFqdg-1" vertex="1"><mxGeometry x="540" y="40" width="120" height="40" as="geometry"/></mxCell><mxCell id="ATWzokNBbirf8xxilFgU-7" value="" style="endArrow=block;endFill=0;endSize=12;html=1;rounded=0;fontSize=12;strokeWidth=2;" parent="97BSthSGMk0bG24kFqdg-1" source="ATWzokNBbirf8xxilFgU-6" target="FHa6XKOMPqe2WC_pueKy-25" edge="1"><mxGeometry width="160" relative="1" as="geometry"><mxPoint x="690" y="370" as="sourcePoint"/><mxPoint x="690" y="290" as="targetPoint"/></mxGeometry></mxCell><mxCell id="ATWzokNBbirf8xxilFgU-8" value="" style="endArrow=block;endSize=16;endFill=0;html=1;rounded=0;fontSize=12;strokeWidth=2;" parent="97BSthSGMk0bG24kFqdg-1" source="ATWzokNBbirf8xxilFgU-2" target="ATWzokNBbirf8xxilFgU-6" edge="1"><mxGeometry width="160" relative="1" as="geometry"><mxPoint x="673.3333333333335" y="370" as="sourcePoint"/><mxPoint x="526.6666666666667" y="290" as="targetPoint"/></mxGeometry></mxCell><mxCell id="ATWzokNBbirf8xxilFgU-9" value="«sealed interface»&lt;br&gt;&lt;b&gt;Writer&lt;/b&gt;" style="html=1;fillColor=#60a917;fontColor=#ffffff;strokeColor=#2D7600;" parent="97BSthSGMk0bG24kFqdg-1" vertex="1"><mxGeometry x="60" y="40" width="120" height="40" as="geometry"/></mxCell><mxCell id="ATWzokNBbirf8xxilFgU-12" value="" style="endArrow=block;endFill=0;endSize=12;html=1;rounded=0;fontSize=12;strokeWidth=2;" parent="97BSthSGMk0bG24kFqdg-1" source="ATWzokNBbirf8xxilFgU-9" target="FHa6XKOMPqe2WC_pueKy-25" edge="1"><mxGeometry width="160" relative="1" as="geometry"><mxPoint x="530" y="250" as="sourcePoint"/><mxPoint x="690" y="170" as="targetPoint"/></mxGeometry></mxCell><mxCell id="ATWzokNBbirf8xxilFgU-13" value="" style="endArrow=block;endFill=0;endSize=12;html=1;rounded=0;fontSize=12;strokeWidth=2;" parent="97BSthSGMk0bG24kFqdg-1" source="FHa6XKOMPqe2WC_pueKy-7" target="ATWzokNBbirf8xxilFgU-9" edge="1"><mxGeometry width="160" relative="1" as="geometry"><mxPoint x="190" y="150" as="sourcePoint"/><mxPoint x="670" y="150" as="targetPoint"/></mxGeometry></mxCell><mxCell id="tB1WrE-QpYFQmfNMvsqq-1" value="" style="endArrow=block;endFill=0;endSize=12;html=1;rounded=0;fontSize=12;strokeWidth=2;" parent="97BSthSGMk0bG24kFqdg-1" source="ATWzokNBbirf8xxilFgU-0" target="97BSthSGMk0bG24kFqdg-2" edge="1"><mxGeometry width="160" relative="1" as="geometry"><mxPoint x="350" y="170" as="sourcePoint"/><mxPoint x="350" y="90" as="targetPoint"/></mxGeometry></mxCell></root></mxGraphModel></diagram><diagram id="wt7sS-zIa_kjdXnI7Ox_" name="Exceptions"><mxGraphModel dx="701" dy="861" grid="1" gridSize="10" guides="1" tooltips="1" connect="1" arrows="1" fold="1" page="1" pageScale="1" pageWidth="1169" pageHeight="827" math="0" shadow="0"><root><mxCell id="Feg0Q7_4iiQK9QdwC4RV-0"/><mxCell id="Feg0Q7_4iiQK9QdwC4RV-1" parent="Feg0Q7_4iiQK9QdwC4RV-0"/><mxCell id="Feg0Q7_4iiQK9QdwC4RV-2" value="&lt;b&gt;IllegalArgumentException&lt;/b&gt;" style="html=1;fillColor=#1ba1e2;fontColor=#ffffff;strokeColor=#006EAF;" parent="Feg0Q7_4iiQK9QdwC4RV-1" vertex="1"><mxGeometry x="505" y="274" width="160" height="40" as="geometry"/></mxCell><mxCell id="Feg0Q7_4iiQK9QdwC4RV-3" value="«sealed»&lt;br&gt;&lt;b&gt;CsvException&lt;/b&gt;" style="html=1;fillColor=#6a00ff;fontColor=#ffffff;strokeColor=#3700CC;" parent="Feg0Q7_4iiQK9QdwC4RV-1" vertex="1"><mxGeometry x="525" y="394" width="120" height="40" as="geometry"/></mxCell><mxCell id="Feg0Q7_4iiQK9QdwC4RV-4" value="" style="endArrow=block;endSize=16;endFill=0;html=1;rounded=0;fontSize=12;strokeWidth=2;edgeStyle=orthogonalEdgeStyle;" parent="Feg0Q7_4iiQK9QdwC4RV-1" source="Feg0Q7_4iiQK9QdwC4RV-3" target="Feg0Q7_4iiQK9QdwC4RV-2" edge="1"><mxGeometry width="160" relative="1" as="geometry"><mxPoint x="115" y="544" as="sourcePoint"/><mxPoint x="15" y="444" as="targetPoint"/></mxGeometry></mxCell><mxCell id="Feg0Q7_4iiQK9QdwC4RV-5" value="&lt;b&gt;FileNotFoundException&lt;/b&gt;" style="html=1;fillColor=#1ba1e2;fontColor=#ffffff;strokeColor=#006EAF;" parent="Feg0Q7_4iiQK9QdwC4RV-1" vertex="1"><mxGeometry x="285" y="514" width="160" height="40" as="geometry"/></mxCell><mxCell id="Feg0Q7_4iiQK9QdwC4RV-6" value="" style="endArrow=block;endSize=16;endFill=0;html=1;rounded=0;fontSize=12;strokeWidth=2;edgeStyle=orthogonalEdgeStyle;exitX=0.5;exitY=0;exitDx=0;exitDy=0;" parent="Feg0Q7_4iiQK9QdwC4RV-1" source="Feg0Q7_4iiQK9QdwC4RV-5" target="Feg0Q7_4iiQK9QdwC4RV-3" edge="1"><mxGeometry width="160" relative="1" as="geometry"><mxPoint x="375" y="404" as="sourcePoint"/><mxPoint x="375" y="324" as="targetPoint"/></mxGeometry></mxCell><mxCell id="Feg0Q7_4iiQK9QdwC4RV-7" value="&lt;b&gt;InvalidConfigurationException&lt;/b&gt;" style="html=1;fillColor=#1ba1e2;fontColor=#ffffff;strokeColor=#006EAF;" parent="Feg0Q7_4iiQK9QdwC4RV-1" vertex="1"><mxGeometry x="485" y="514" width="200" height="40" as="geometry"/></mxCell><mxCell id="Feg0Q7_4iiQK9QdwC4RV-8" value="" style="endArrow=block;endSize=16;endFill=0;html=1;rounded=0;fontSize=12;strokeWidth=2;edgeStyle=orthogonalEdgeStyle;" parent="Feg0Q7_4iiQK9QdwC4RV-1" source="Feg0Q7_4iiQK9QdwC4RV-7" target="Feg0Q7_4iiQK9QdwC4RV-3" edge="1"><mxGeometry width="160" relative="1" as="geometry"><mxPoint x="375" y="524" as="sourcePoint"/><mxPoint x="375" y="444" as="targetPoint"/></mxGeometry></mxCell><mxCell id="Feg0Q7_4iiQK9QdwC4RV-9" value="&lt;b&gt;InvalidTypeException&lt;/b&gt;" style="html=1;fillColor=#1ba1e2;fontColor=#ffffff;strokeColor=#006EAF;" parent="Feg0Q7_4iiQK9QdwC4RV-1" vertex="1"><mxGeometry x="725" y="514" width="160" height="40" as="geometry"/></mxCell><mxCell id="Feg0Q7_4iiQK9QdwC4RV-10" value="" style="endArrow=block;endSize=16;endFill=0;html=1;rounded=0;fontSize=12;strokeWidth=2;edgeStyle=orthogonalEdgeStyle;exitX=0.5;exitY=0;exitDx=0;exitDy=0;" parent="Feg0Q7_4iiQK9QdwC4RV-1" source="Feg0Q7_4iiQK9QdwC4RV-9" target="Feg0Q7_4iiQK9QdwC4RV-3" edge="1"><mxGeometry width="160" relative="1" as="geometry"><mxPoint x="595" y="524" as="sourcePoint"/><mxPoint x="475" y="444" as="targetPoint"/></mxGeometry></mxCell></root></mxGraphModel></diagram><diagram id="PUvgWlTegHdNH9qTKHCu" name="CsvPathResult"><mxGraphModel dx="692" dy="861" grid="1" gridSize="10" guides="1" tooltips="1" connect="1" arrows="1" fold="1" page="1" pageScale="1" pageWidth="850" pageHeight="1100" math="0" shadow="0"><root><mxCell id="MQTTYJz_h4ARyiPKaGGF-0"/><mxCell id="MQTTYJz_h4ARyiPKaGGF-1" parent="MQTTYJz_h4ARyiPKaGGF-0"/><mxCell id="Le2D2qp-kRNqCPgdsbQu-0" value="«sealed interface»&lt;br&gt;&lt;b&gt;CsvPathResult&lt;/b&gt;" style="html=1;fillColor=#60a917;fontColor=#ffffff;strokeColor=#2D7600;" vertex="1" parent="MQTTYJz_h4ARyiPKaGGF-1"><mxGeometry x="400" y="40" width="120" height="40" as="geometry"/></mxCell><mxCell id="Le2D2qp-kRNqCPgdsbQu-1" value="«sealed interface»&lt;br&gt;&lt;b&gt;CsvPathResult.F&lt;/b&gt;&lt;b&gt;romNotBlankString&lt;/b&gt;" style="html=1;fillColor=#60a917;fontColor=#ffffff;strokeColor=#2D7600;" vertex="1" parent="MQTTYJz_h4ARyiPKaGGF-1"><mxGeometry x="40" y="160" width="240" height="40" as="geometry"/></mxCell><mxCell id="lD_Vpqw3V-0zVUGMKawO-0" value="" style="endArrow=block;endFill=0;endSize=12;html=1;rounded=0;fontSize=12;strokeWidth=2;" edge="1" parent="MQTTYJz_h4ARyiPKaGGF-1" source="Le2D2qp-kRNqCPgdsbQu-1" target="Le2D2qp-kRNqCPgdsbQu-0"><mxGeometry width="160" relative="1" as="geometry"><mxPoint x="120" y="160" as="sourcePoint"/><mxPoint x="120" y="80" as="targetPoint"/></mxGeometry></mxCell><mxCell id="lD_Vpqw3V-0zVUGMKawO-1" value="«sealed interface»&lt;br&gt;&lt;b&gt;CsvPathResult.&lt;/b&gt;&lt;b&gt;FromString&lt;/b&gt;" style="html=1;fillColor=#60a917;fontColor=#ffffff;strokeColor=#2D7600;" vertex="1" parent="MQTTYJz_h4ARyiPKaGGF-1"><mxGeometry x="360" y="160" width="200" height="40" as="geometry"/></mxCell><mxCell id="lD_Vpqw3V-0zVUGMKawO-2" value="" style="endArrow=block;endFill=0;endSize=12;html=1;rounded=0;fontSize=12;strokeWidth=2;" edge="1" parent="MQTTYJz_h4ARyiPKaGGF-1" source="lD_Vpqw3V-0zVUGMKawO-1" target="Le2D2qp-kRNqCPgdsbQu-0"><mxGeometry width="160" relative="1" as="geometry"><mxPoint x="220" y="170" as="sourcePoint"/><mxPoint x="420" y="90" as="targetPoint"/></mxGeometry></mxCell><mxCell id="GrHJcZz3_rBOtqyY77Fu-0" value="&lt;b&gt;CsvPathResult.Success&lt;/b&gt;" style="html=1;fillColor=#1ba1e2;fontColor=#ffffff;strokeColor=#006EAF;" vertex="1" parent="MQTTYJz_h4ARyiPKaGGF-1"><mxGeometry x="80" y="280" width="160" height="40" as="geometry"/></mxCell><mxCell id="unJ4D19Hk9t6f0lQh1z3-0" value="" style="endArrow=block;endFill=0;endSize=12;html=1;rounded=0;fontSize=12;strokeWidth=2;dashed=1;" edge="1" parent="MQTTYJz_h4ARyiPKaGGF-1" source="GrHJcZz3_rBOtqyY77Fu-0" target="Le2D2qp-kRNqCPgdsbQu-1"><mxGeometry width="160" relative="1" as="geometry"><mxPoint x="220" y="170" as="sourcePoint"/><mxPoint x="420" y="90" as="targetPoint"/></mxGeometry></mxCell><mxCell id="unJ4D19Hk9t6f0lQh1z3-1" value="" style="endArrow=block;endFill=0;endSize=12;html=1;rounded=0;fontSize=12;strokeWidth=2;dashed=1;" edge="1" parent="MQTTYJz_h4ARyiPKaGGF-1" source="GrHJcZz3_rBOtqyY77Fu-0" target="lD_Vpqw3V-0zVUGMKawO-1"><mxGeometry width="160" relative="1" as="geometry"><mxPoint x="170" y="290" as="sourcePoint"/><mxPoint x="170" y="210" as="targetPoint"/></mxGeometry></mxCell><mxCell id="ODGAySizwzlwrJnb4bfh-0" value="«sealed class»&lt;br&gt;&lt;b&gt;CsvPathResult.Exception&lt;br&gt;&lt;/b&gt;" style="html=1;fillColor=#6a00ff;fontColor=#ffffff;strokeColor=#3700CC;" vertex="1" parent="MQTTYJz_h4ARyiPKaGGF-1"><mxGeometry x="640" y="160" width="160" height="40" as="geometry"/></mxCell><mxCell id="ODGAySizwzlwrJnb4bfh-1" value="&lt;b&gt;IllegalArgumentException&lt;/b&gt;" style="html=1;fillColor=#1ba1e2;fontColor=#ffffff;strokeColor=#006EAF;" vertex="1" parent="MQTTYJz_h4ARyiPKaGGF-1"><mxGeometry x="640" y="40" width="160" height="40" as="geometry"/></mxCell><mxCell id="ODGAySizwzlwrJnb4bfh-2" value="" style="endArrow=block;endFill=0;endSize=12;html=1;rounded=0;fontSize=12;strokeWidth=2;" edge="1" parent="MQTTYJz_h4ARyiPKaGGF-1" source="ODGAySizwzlwrJnb4bfh-0" target="ODGAySizwzlwrJnb4bfh-1"><mxGeometry width="160" relative="1" as="geometry"><mxPoint x="470" y="170" as="sourcePoint"/><mxPoint x="470" y="90" as="targetPoint"/></mxGeometry></mxCell><mxCell id="ODGAySizwzlwrJnb4bfh-3" value="" style="endArrow=block;endFill=0;endSize=12;html=1;rounded=0;fontSize=12;strokeWidth=2;dashed=1;" edge="1" parent="MQTTYJz_h4ARyiPKaGGF-1" source="ODGAySizwzlwrJnb4bfh-0" target="Le2D2qp-kRNqCPgdsbQu-0"><mxGeometry width="160" relative="1" as="geometry"><mxPoint x="210" y="294" as="sourcePoint"/><mxPoint x="420" y="210" as="targetPoint"/></mxGeometry></mxCell><mxCell id="ODGAySizwzlwrJnb4bfh-4" value="&lt;b&gt;CsvPathResult.&lt;/b&gt;&lt;b&gt;BlankString&lt;/b&gt;" style="html=1;fillColor=#1ba1e2;fontColor=#ffffff;strokeColor=#006EAF;" vertex="1" parent="MQTTYJz_h4ARyiPKaGGF-1"><mxGeometry x="640" y="280" width="160" height="40" as="geometry"/></mxCell><mxCell id="ODGAySizwzlwrJnb4bfh-5" value="" style="endArrow=block;endFill=0;endSize=12;html=1;rounded=0;fontSize=12;strokeWidth=2;" edge="1" parent="MQTTYJz_h4ARyiPKaGGF-1" source="ODGAySizwzlwrJnb4bfh-4" target="ODGAySizwzlwrJnb4bfh-0"><mxGeometry width="160" relative="1" as="geometry"><mxPoint x="710" y="170" as="sourcePoint"/><mxPoint x="710" y="90" as="targetPoint"/></mxGeometry></mxCell><mxCell id="ODGAySizwzlwrJnb4bfh-6" value="" style="endArrow=block;endFill=0;endSize=12;html=1;rounded=0;fontSize=12;strokeWidth=2;dashed=1;" edge="1" parent="MQTTYJz_h4ARyiPKaGGF-1" source="ODGAySizwzlwrJnb4bfh-4" target="lD_Vpqw3V-0zVUGMKawO-1"><mxGeometry width="160" relative="1" as="geometry"><mxPoint x="210" y="294" as="sourcePoint"/><mxPoint x="420" y="210" as="targetPoint"/></mxGeometry></mxCell><mxCell id="ODGAySizwzlwrJnb4bfh-7" value="&lt;b&gt;CsvPathResult.Exception.&lt;/b&gt;&lt;b&gt;CsvExtensionAsPath&lt;/b&gt;" style="html=1;fillColor=#1ba1e2;fontColor=#ffffff;strokeColor=#006EAF;" vertex="1" parent="MQTTYJz_h4ARyiPKaGGF-1"><mxGeometry x="320" y="280" width="280" height="40" as="geometry"/></mxCell><mxCell id="ODGAySizwzlwrJnb4bfh-8" value="" style="endArrow=block;endFill=0;endSize=12;html=1;rounded=0;fontSize=12;strokeWidth=2;dashed=1;" edge="1" parent="MQTTYJz_h4ARyiPKaGGF-1" source="ODGAySizwzlwrJnb4bfh-7" target="lD_Vpqw3V-0zVUGMKawO-1"><mxGeometry width="160" relative="1" as="geometry"><mxPoint x="210" y="294" as="sourcePoint"/><mxPoint x="420" y="210" as="targetPoint"/></mxGeometry></mxCell><mxCell id="ODGAySizwzlwrJnb4bfh-9" value="" style="endArrow=block;endFill=0;endSize=12;html=1;rounded=0;fontSize=12;strokeWidth=2;" edge="1" parent="MQTTYJz_h4ARyiPKaGGF-1" source="ODGAySizwzlwrJnb4bfh-7" target="ODGAySizwzlwrJnb4bfh-0"><mxGeometry width="160" relative="1" as="geometry"><mxPoint x="710" y="290" as="sourcePoint"/><mxPoint x="710" y="210" as="targetPoint"/></mxGeometry></mxCell><mxCell id="ODGAySizwzlwrJnb4bfh-10" value="" style="endArrow=block;endFill=0;endSize=12;html=1;rounded=0;fontSize=12;strokeWidth=2;dashed=1;" edge="1" parent="MQTTYJz_h4ARyiPKaGGF-1" source="ODGAySizwzlwrJnb4bfh-7" target="Le2D2qp-kRNqCPgdsbQu-1"><mxGeometry width="160" relative="1" as="geometry"><mxPoint x="470" y="290" as="sourcePoint"/><mxPoint x="470" y="210" as="targetPoint"/></mxGeometry></mxCell></root></mxGraphModel></diagram></mxfile>